<?xml version="1.0" standalone="no"?>
<!DOCTYPE svg PUBLIC "-//W3C//DTD SVG 20010904//EN"
 "http://www.w3.org/TR/2001/REC-SVG-20010904/DTD/svg10.dtd">
<svg version="1.0" xmlns="http://www.w3.org/2000/svg"
 width="512.000000pt" height="512.000000pt" viewBox="0 0 512.000000 512.000000"
 preserveAspectRatio="xMidYMid meet">
<metadata>
Created by potrace 1.14, written by Peter Selinger 2001-2017
</metadata>
<g transform="translate(0.000000,512.000000) scale(0.100000,-0.100000)"
fill="#000000" stroke="none">
<path d="M2683 5101 c-73 -25 -127 -64 -168 -119 -60 -83 -63 -102 -65 -441 0
-168 -2 -306 -3 -308 -2 -1 -496 -4 -1098 -5 l-1094 -3 -57 -27 c-70 -32 -133
-96 -167 -168 l-26 -55 -2 -1170 c-2 -791 0 -1183 8 -1210 28 -109 105 -197
207 -236 56 -22 63 -22 699 -23 l642 -1 -1 -222 0 -223 -87 0 c-140 0 -255
-37 -358 -114 -109 -82 -191 -217 -213 -347 -17 -106 -13 -325 7 -366 32 -68
-116 -64 2021 -61 l1937 3 57 27 c70 32 133 96 167 168 l26 55 0 2305 0 2305
-27 57 c-33 72 -95 133 -167 167 l-56 26 -1065 2 c-1002 2 -1068 1 -1117 -16z
m2167 -226 c46 -41 47 -55 48 -357 l0 -288 -1114 0 -1114 0 0 286 c0 237 3
292 15 319 16 32 41 51 80 58 11 2 480 3 1041 3 1007 -1 1022 -1 1044 -21z
m47 -1091 l1 -223 -334 0 -334 1 -1 181 c-1 176 -2 196 -13 242 l-6 22 344 0
343 0 0 -223z m-1 -666 l-1 -223 -332 -1 -333 0 0 223 0 223 333 0 334 0 -1
-222z m0 -1638 l-1 -1190 -33 -32 -32 -33 -745 -1 -745 -2 0 72 c0 115 -17
194 -62 285 -97 197 -288 311 -524 311 l-84 0 0 223 0 222 643 1 642 1 59 23
c65 25 126 75 163 132 51 81 53 112 53 665 l0 513 334 0 333 0 -1 -1190z
m-2446 -367 l0 -223 -335 0 -335 0 0 218 c0 120 2 221 4 223 3 2 154 4 335 4
l331 0 0 -222z m466 -476 c76 -35 135 -94 169 -169 20 -45 27 -77 30 -151 l4
-94 -1003 0 -1004 0 2 86 c2 47 8 104 16 126 37 113 137 202 251 224 24 5 366
8 759 7 l715 -1 61 -28z"/>
</g>
</svg>
